<?xml version="1.0" encoding="UTF-8"?>
<svg xmlns="http://www.w3.org/2000/svg" version="1.1" xmlns:xlink="http://www.w3.org/1999/xlink" viewBox="0 0 2000 2000">
  <!-- Generator: Adobe Illustrator 29.8.5, SVG Export Plug-In . SVG Version: 2.1.1 Build 2)  -->
  <defs>
    <style>
      .st0 {
        fill: url(#linear-gradient1);
      }

      .st1 {
        fill: #06202d;
      }

      .st2 {
        fill: url(#linear-gradient);
      }
    </style>
    <linearGradient id="linear-gradient" x1="859.7" y1="436.02" x2="1438.75" y2="1129.25" gradientUnits="userSpaceOnUse">
      <stop offset=".03" stop-color="#07b0f2"/>
      <stop offset="1" stop-color="#17e6c5"/>
    </linearGradient>
    <linearGradient id="linear-gradient1" x1="441.45" y1="785.38" x2="1020.5" y2="1478.61" xlink:href="#linear-gradient"/>
  </defs>
  <g id="Background">
    <rect class="st1" x="0" width="2000" height="2000"/>
  </g>
  <g id="Logo">
    <g>
      <path class="st2" d="M1452.81,665.98c49.18,0,94.17,24.84,120.34,66.44,26.17,41.59,29.09,92.88,7.81,137.21l-161.51,336.57-7.88,16.09c-.04.09-.09.18-.13.27-33.5,69.8-99.68,111.47-177.04,111.47-36.2,0-71.38-9.62-101.73-27.82-32.27-19.36-58.3-48.28-75.28-83.65l-205.04-427c-13.74-28.57-11.95-60.36,4.94-87.22,16.67-26.52,45.31-42.35,76.61-42.35,35.15,0,66.46,19.67,81.7,51.3l198.23,412.93c.1.22.21.44.32.65l.71,1.4c2.25,4.47,4.57,9.08,7.27,13.78,3.37,6.27,6.94,11.63,10.03,16.18.09.13.18.26.27.39l.73,1.06c1.38,1.99,2.95,4.24,4.67,6.52.45.6.91,1.19,1.36,1.78,20.56,26.54,49.46,41.15,81.37,41.15,36.73,0,71.83-19.52,91.6-50.94,19.06-30.29,20.75-66.91,4.64-100.46l-92.2-192.09c-21.27-44.31-18.35-95.59,7.82-137.18,26.19-41.62,71.19-66.47,120.38-66.47M1452.81,628.91c-132,0-218.74,137.77-161.61,256.75l92.2,192.09c24.89,51.87-17.97,98.3-62.82,98.3-18.57,0-37.48-7.96-52.07-26.79-.37-.48-.74-.96-1.11-1.45-1.52-2.02-3.05-4.24-4.57-6.43-2.88-4.24-5.77-8.61-8.28-13.34-2.55-4.41-4.9-9.14-7.29-13.88l-198.23-412.93c-21.33-44.28-65.94-72.32-115.12-72.32-93.82,0-155.68,98.02-114.95,182.7l205.02,426.98c42.42,88.39,126.44,132.5,210.42,132.5s168.04-44.11,210.46-132.5l7.95-16.23,161.57-336.7c57.12-118.99-29.57-256.75-161.57-256.75h0Z"/>
      <path class="st0" d="M495.47,665.98c34.59,0,66.61,20.15,81.58,51.33l198.28,412.95c33.12,68.97,95.68,118.88,168.16,137.45-13.2,15.21-28.59,28.19-45.75,38.48-30.37,18.21-65.58,27.83-101.8,27.83s-71.44-9.62-101.82-27.83c-32.28-19.35-58.31-48.25-75.27-83.58l-204.98-426.96c-13.55-28.21-11.68-60.87,4.99-87.36,16.67-26.49,45.3-42.3,76.6-42.3h0M495.47,628.92h0c-93.94,0-155.66,98.09-115,182.78l204.98,426.96c42.39,88.3,126.44,132.44,210.5,132.44,100.29,0,160.04-57.54,189.06-96.63,11.19-15.07,3.53-36.79-14.73-41.15-40.21-9.59-105.16-34.83-150.2-100.84-6.35-9.3-11.77-19.19-16.64-29.34l-192.96-401.86c-21.23-44.22-65.94-72.35-115-72.35h0Z"/>
    </g>
  </g>
</svg>